<svg width="32" height="32" viewBox="0 0 32 32" fill="none" xmlns="http://www.w3.org/2000/svg">
<circle cx="16" cy="16" r="15" fill="white"/>
<circle cx="16" cy="16" r="15.5" stroke="#C9C9C9" stroke-opacity="0.3"/>
<path fill-rule="evenodd" clip-rule="evenodd" d="M9.33398 24.6113V9.05577C9.33398 8.52105 9.52454 8.06346 9.90565 7.683C10.2868 7.30253 10.7444 7.11198 11.2784 7.11133H21.0007C21.5354 7.11133 21.9933 7.30188 22.3744 7.683C22.7555 8.06411 22.9458 8.5217 22.9451 9.05577V24.6113L16.1395 21.6947L9.33398 24.6113ZM11.2784 21.6461L16.1395 19.5558L21.0007 21.6461V10.0558C21.0007 9.50349 20.5529 9.05577 20.0007 9.05577H12.2784C11.7261 9.05577 11.2784 9.50349 11.2784 10.0558V21.6461ZM17.1393 10.9725V11.9725V13.1947H18.3615H19.3615V15.1947H18.3615H17.1393V16.4169V17.4169H15.1393V16.4169V15.1947H13.917H12.917V13.1947H13.917H15.1393V11.9725V10.9725H17.1393Z" fill="#212121"/>
</svg>
