<svg width="14" height="18" viewBox="0 0 14 18" fill="none" xmlns="http://www.w3.org/2000/svg">
<path fill-rule="evenodd" clip-rule="evenodd" d="M0.333984 17.6113V2.05577C0.333984 1.52105 0.52454 1.06346 0.905651 0.682995C1.28676 0.302532 1.74436 0.111976 2.27843 0.111328H12.0007C12.5354 0.111328 12.9933 0.301884 13.3744 0.682995C13.7555 1.06411 13.9458 1.5217 13.9451 2.05577V17.6113L7.13955 14.6947L0.333984 17.6113ZM2.27843 14.6461L7.13955 12.5558L12.0007 14.6461V3.05577C12.0007 2.50349 11.5529 2.05577 11.0007 2.05577H3.27843C2.72615 2.05577 2.27843 2.50349 2.27843 3.05577V14.6461ZM8.13928 3.97247V4.97247V6.19468H9.36145H10.3615V8.19468H9.36145H8.13928V9.41691V10.4169H6.13928V9.41691V8.19468H4.917H3.917V6.19468H4.917H6.13928V4.97247V3.97247H8.13928Z" fill="#212121"/>
</svg>
