<svg width="137" height="129" viewBox="0 0 137 129" fill="none" xmlns="http://www.w3.org/2000/svg">
<path d="M60.4701 39.4067C60.4701 39.4067 57.8174 18.3703 41.9235 18.1305C26.0072 17.8906 13.9921 21.3687 13.9921 21.3687C13.9921 21.3687 1.28583 34.4654 6.25687 42.333C11.2279 50.2007 22.4629 57.8524 22.4629 57.8524L5.72187 69.1262C5.72187 69.1262 -1.92416 95.3197 0.461043 102.228C2.84625 109.136 23.1539 124.991 30.2204 123.336C37.2645 121.681 48.4549 110.695 48.8116 105.514C49.1682 100.333 50.3497 122.521 63.2565 126.334C76.1411 130.148 107.349 129.765 110.47 124.799C113.591 119.834 122.708 108.68 118.317 102.348C113.925 96.0153 102.534 80.9036 102.534 80.9036C102.534 80.9036 130.711 93.6886 132.405 89.347C134.099 85.0054 137.867 71.165 136.819 66.6076C135.771 62.0501 134.768 47.0584 127.189 46.4348C119.61 45.8111 96.4711 49.8409 96.4711 49.8409C96.4711 49.8409 121.126 44.156 119.587 36.7202C118.049 29.2843 119.699 15.9957 114.237 14.7963C108.776 13.597 90.3186 0.14045 81.9369 0.932011C73.5776 1.72357 62.8776 6.04118 62.3872 12.7095C61.8968 19.3778 60.4701 39.3827 60.4701 39.3827V39.4067Z" fill="#EAEAEA"/>
</svg>
