<svg width="40" height="36" viewBox="0 0 40 36" fill="none" xmlns="http://www.w3.org/2000/svg">
<g clip-path="url(#clip0_3088_4317)">
<rect width="40" height="34.2857" transform="translate(0 0.855469)" fill="white"/>
<path d="M39.9998 9.16256H31.9869C32.1957 9.09768 32.4044 9.0409 32.6052 8.98412C33.0066 8.87056 33.384 8.76512 33.7132 8.63534C35.07 8.08379 36.6036 7.45112 37.5108 5.88567C38.121 4.815 38.121 3.428 37.5108 2.34922C36.9408 1.34344 35.9693 0.799998 34.8372 0.856776C32.8701 0.954109 31.3205 2.59256 30.0841 5.86134C29.8272 6.55078 29.5702 7.26456 29.3374 7.97834C29.1046 7.27267 28.8557 6.55889 28.5907 5.86134C27.3703 2.60067 25.8207 0.962221 23.8537 0.856776C22.7296 0.791887 21.7581 1.33533 21.18 2.34111C20.5698 3.41989 20.5698 4.80689 21.18 5.87756C22.0793 7.44301 23.6208 8.07567 24.9777 8.62723C25.3149 8.76512 25.7003 8.87056 26.1178 8.99223C26.3105 9.04901 26.5112 9.10579 26.712 9.16256H18.667V10.8659L7.9484 1.61111L6.74406 3.03056L18.659 13.3317V14.4835C17.7356 14.378 16.6919 14.4429 15.5437 14.6862C14.8693 14.8322 14.1547 14.597 13.6891 14.0779L3.25149 2.54389L1.88658 3.80922L12.3161 15.3514C13.2234 16.3571 14.6044 16.8114 15.9211 16.5275C16.6919 16.3652 17.824 16.2111 18.8195 16.4058C19.0684 16.4545 19.2932 16.5275 19.502 16.6167C19.7268 16.714 19.9115 16.8357 20.072 16.9736L20.1764 17.0709C20.5457 17.4035 21.0195 17.8658 21.5895 18.4498C22.0231 18.8959 22.4968 19.3988 22.9705 19.9098C24.4879 21.5564 26.0857 23.3651 26.8966 24.306C27.0251 24.452 27.0331 24.6548 26.9287 24.7927C26.7601 25.0036 26.5755 25.1171 26.3908 25.1334C26.0375 25.1739 25.5397 24.9063 24.9697 24.4034C22.0311 21.8159 20.9954 21.4022 20.2647 21.5807C20.1523 21.605 20.0399 21.6537 19.9356 21.7105C19.7669 21.8078 19.5341 21.9862 19.4056 22.3269C19.2932 22.6027 19.2692 22.9434 19.3254 23.3246C19.3414 23.4381 19.3655 23.5598 19.3896 23.6896C19.5341 24.4034 19.7991 25.2145 20.1282 25.9688C20.5136 26.8529 20.9713 27.6478 21.5092 28.3373C21.7019 28.5887 21.9267 28.8401 22.1596 29.0835C22.4245 29.3593 22.7055 29.6107 23.0026 29.8378C23.4121 30.146 23.8215 30.3975 24.239 30.5921L23.7011 30.9328C23.2756 30.8679 22.1034 30.6084 20.8107 29.5215C20.5538 29.3025 20.3049 29.0591 20.064 28.8077C19.9596 28.6941 19.8472 28.5725 19.7429 28.4427C19.6064 28.2805 19.4699 28.102 19.3334 27.9155L17.84 29.0186C19.1407 30.8193 20.5618 31.7601 21.6377 32.2387L21.3567 32.4172C18.7714 32.0684 17.0612 29.2944 17.0291 29.2944C17.013 29.2944 15.4554 30.2677 15.4554 30.2758C15.3912 30.3407 16.443 31.8899 18.105 33.0579C17.6553 32.8957 17.1977 32.6443 16.74 32.3117C14.2832 30.5029 11.9147 26.1148 11.1278 23.0894C10.4695 20.5344 6.41488 16.8276 2.65735 13.5345C2.0311 12.9829 1.5333 12.5449 1.31652 12.334L0.0078125 13.6561C0.272766 13.9238 0.802674 14.3861 1.46104 14.9701C3.82957 17.0466 8.75932 21.3617 9.32937 23.5679C10.2125 26.9746 12.8139 31.7439 15.6401 33.8285C16.8284 34.7045 18.0407 35.1425 19.2531 35.1425C20.4655 35.1425 21.3005 34.6639 21.3888 34.6072L28.8557 29.9027H28.1812V9.6249H30.5899V29.8946H40.0078V9.16256H39.9998ZM26.3185 7.34567C25.9974 7.25645 25.6923 7.16723 25.4594 7.07801C24.3996 6.64001 23.2997 6.19389 22.7216 5.18812C22.4004 4.62845 22.4004 3.89845 22.7216 3.33067C22.8661 3.07111 23.2113 2.64122 23.8537 2.64122H23.9339C25.1222 2.70611 26.1339 3.88222 27.0251 6.25878C27.2097 6.75356 27.3864 7.24834 27.555 7.75123C27.1455 7.58901 26.712 7.46734 26.3105 7.35378L26.3185 7.34567ZM31.6256 6.26689C32.5329 3.84978 33.5686 2.64122 34.781 2.58444H34.8693C35.5357 2.58444 35.881 3.02245 36.0335 3.282C36.3627 3.85789 36.3627 4.60411 36.0335 5.18C35.4394 6.21012 34.3233 6.67245 33.2314 7.11045C32.9986 7.20778 32.6855 7.29701 32.3402 7.38623C31.9388 7.49978 31.4972 7.62145 31.0797 7.79179C31.2483 7.28078 31.4329 6.76978 31.6256 6.25878V6.26689Z" fill="#212121"/>
<path d="M28.8555 29.9029H30.5897V29.8867H28.8715L28.8555 29.9029Z" fill="white"/>
</g>
<defs>
<clipPath id="clip0_3088_4317">
<rect width="40" height="34.2857" fill="white" transform="translate(0 0.855469)"/>
</clipPath>
</defs>
</svg>
