<svg width="368" height="76" viewBox="0 0 368 76" fill="none" xmlns="http://www.w3.org/2000/svg">
<g clip-path="url(#clip0_2951_41676)">
<path d="M48.4389 31.9922L40.792 38.0919L39.2751 39.3104L29.5502 47.0648L19.7145 39.2619L18.1837 38.0434L10.5576 31.9922H0.555664V74.5445H10.5992V44.9324L16.4036 49.2596L18.2184 50.6097L27.1398 57.2563H31.9676L40.6881 50.7551L42.4959 49.4119L48.5082 44.9324V74.5445H58.5448V31.9922H48.4389Z" fill="#212121"/>
<path d="M29.5243 31.7734L29.2108 32.4471L28.8973 31.7734L17.042 37.3788V74.7963H18.8457V38.5365L29.2108 33.6337L39.5782 38.5365V74.7963H41.3797V37.3788L29.5243 31.7734Z" fill="#999999"/>
<path d="M28.2559 32.7939C27.7371 30.376 24.6198 29.5061 21.8712 28.7388C20.9131 28.4711 20.0079 28.2168 19.2507 27.9068C16.1423 26.6376 12.6188 25.1989 10.6407 21.746C9.35138 19.4954 9.35359 16.5778 10.6429 14.3161C11.8063 12.2796 13.7712 11.1442 16.0959 11.2714C20.359 11.4855 23.7919 15.1971 26.5869 22.6159C27.3596 24.668 28.0859 26.7581 28.7438 28.8258C28.8586 29.1849 29.0352 29.5797 29.2162 29.9879C29.5871 30.8244 29.9691 31.692 30.0331 32.5285L28.2537 32.7917L28.2559 32.7939ZM15.7714 13.0848C13.7315 13.0848 12.6629 14.4276 12.2059 15.2284C11.2301 16.9347 11.2279 19.1363 12.2015 20.8337C13.8705 23.7468 16.9503 25.0026 19.9285 26.2205C20.5886 26.4904 21.4452 26.7291 22.3525 26.9834C23.7875 27.3826 25.3859 27.831 26.7591 28.5447C26.1829 26.7826 25.5603 25.0116 24.9046 23.265C22.3923 16.5935 19.4825 13.2655 16.0076 13.0893L15.7736 13.0826L15.7714 13.0848Z" fill="#999999"/>
<path d="M30.4972 32.7947L28.7178 32.5315C28.7818 31.6928 29.1659 30.8251 29.5368 29.9864C29.7157 29.5805 29.8923 29.1879 30.0071 28.8288C30.6738 26.741 31.4001 24.651 32.164 22.6189C34.9589 15.2001 38.3919 11.4885 42.655 11.2744C44.9686 11.1539 46.9467 12.2826 48.1102 14.3235C49.3995 16.5853 49.3995 19.4984 48.1102 21.749C46.1277 25.2064 42.6064 26.6429 39.5002 27.9098C38.7429 28.2199 37.8378 28.4719 36.8796 28.7396C34.131 29.5091 31.0138 30.379 30.4928 32.7969L30.4972 32.7947ZM42.9795 13.0856L42.7455 13.0923C39.2728 13.2663 36.363 16.5965 33.8507 23.268C33.1994 24.9967 32.5768 26.77 31.9962 28.5455C33.3694 27.8317 34.9678 27.3834 36.4028 26.9841C37.3101 26.7298 38.1667 26.4912 38.8268 26.2213C41.8028 25.0056 44.8803 23.7498 46.5516 20.8345C47.5252 19.1393 47.5252 16.9377 46.5493 15.2314C46.0946 14.4284 45.0216 13.0856 42.9795 13.0856Z" fill="#999999"/>
</g>
<path d="M71.418 31.9531H81.459V74.8177H71.418V31.9531Z" fill="#212121"/>
<path d="M117.587 66.2485V74.8177H95.4834V31.9531H105.401V66.2485H117.587Z" fill="#212121"/>
<path d="M151.158 66.2485V74.8177H129.054V31.9531H138.971V66.2485H151.158Z" fill="#212121"/>
<path d="M172.542 39.9126V49.6464H188.768V57.4225H172.542V66.8537H188.768V74.8131H162.62V31.9531H188.768V39.9126H172.542Z" fill="#212121"/>
<path d="M218.155 31.9531C232.36 31.9531 240.443 42.4251 240.443 53.3877C240.443 64.3503 232.424 74.8177 218.155 74.8177H202.42V31.9531H218.155ZM212.337 40.527V66.2439H217.665C225.688 66.2439 230.342 59.9992 230.342 53.3831C230.342 46.7671 225.688 40.527 217.665 40.527H212.337Z" fill="#212121"/>
<path d="M250.194 53.3904C250.194 41.6347 258.644 30.8555 272.913 30.8555C287.181 30.8555 295.567 41.6347 295.567 53.3904C295.567 65.1462 287.117 75.9254 272.913 75.9254C258.709 75.9254 250.194 65.1462 250.194 53.3904ZM285.466 53.3904C285.466 46.348 280.689 39.8007 272.913 39.8007C265.137 39.8007 260.359 46.3526 260.359 53.3904C260.359 60.4283 265.072 66.9848 272.913 66.9848C280.753 66.9848 285.466 60.4329 285.466 53.3904Z" fill="#212121"/>
<path d="M333.304 59.8754V31.9531H343.166V74.8177H332.813L317.38 47.2668V74.8177H307.463V31.9531H317.811L333.304 59.8754Z" fill="#212121"/>
<path d="M357.194 31.9531H367.235V74.8177H357.194V31.9531Z" fill="#212121"/>
<defs>
<clipPath id="clip0_2951_41676">
<rect width="58.3146" height="74.0754" fill="white" transform="translate(0.230469 0.46875)"/>
</clipPath>
</defs>
</svg>
