<svg width="26" height="27" viewBox="0 0 26 27" fill="none" xmlns="http://www.w3.org/2000/svg">
<path d="M10.3151 0.300782C8.73961 0.301642 7.18631 0.680126 5.78003 1.40581C4.37375 2.1315 3.15371 3.18415 2.21796 4.47915C1.28221 5.77416 0.656868 7.2754 0.39218 8.86221C0.127492 10.449 0.230847 12.0772 0.693937 13.6157C1.15703 15.1543 1.96694 16.5605 3.05857 17.7211C4.1502 18.8818 5.49311 19.7646 6.97936 20.2986C8.4656 20.8326 10.0537 21.0029 11.6161 20.7958C13.1785 20.5887 14.6715 20.01 15.9752 19.1062L22.1994 25.4605C22.3722 25.65 22.5807 25.8021 22.8124 25.9075C23.044 26.013 23.2941 26.0697 23.5476 26.0743C23.8012 26.0788 24.053 26.0312 24.2882 25.9341C24.5233 25.8371 24.7369 25.6927 24.9162 25.5094C25.0955 25.3262 25.2369 25.108 25.3319 24.8677C25.4269 24.6275 25.4735 24.3702 25.469 24.1111C25.4646 23.852 25.4091 23.5965 25.3058 23.3599C25.2026 23.1232 25.0538 22.9102 24.8683 22.7335L18.6492 16.3742C19.6781 14.827 20.2747 13.0225 20.375 11.1548C20.4753 9.28706 20.0755 7.42672 19.2184 5.77381C18.3614 4.1209 17.0796 2.73794 15.5109 1.77362C13.9421 0.809298 12.1458 0.300103 10.3151 0.300782ZM4.02043 10.591C4.02043 8.88532 4.68361 7.24947 5.86409 6.04335C7.04456 4.83722 8.64563 4.15963 10.3151 4.15963C11.9845 4.15963 13.5856 4.83722 14.7661 6.04335C15.9465 7.24947 16.6097 8.88532 16.6097 10.591C16.6097 12.2968 15.9465 13.9326 14.7661 15.1387C13.5856 16.3449 11.9845 17.0225 10.3151 17.0225C8.64563 17.0225 7.04456 16.3449 5.86409 15.1387C4.68361 13.9326 4.02043 12.2968 4.02043 10.591Z" fill="white"/>
</svg>
