<svg width="65" height="63" viewBox="0 0 65 63" fill="none" xmlns="http://www.w3.org/2000/svg">
<ellipse cx="32.8596" cy="31.1888" rx="32.0071" ry="31.0208" fill="#212121"/>
<path d="M30.3151 18.3008C28.7396 18.3016 27.1863 18.6801 25.78 19.4058C24.3737 20.1315 23.1537 21.1841 22.218 22.4792C21.2822 23.7742 20.6569 25.2754 20.3922 26.8622C20.1275 28.449 20.2308 30.0772 20.6939 31.6157C21.157 33.1543 21.9669 34.5605 23.0586 35.7211C24.1502 36.8818 25.4931 37.7646 26.9794 38.2986C28.4656 38.8326 30.0537 39.0029 31.6161 38.7958C33.1785 38.5887 34.6715 38.01 35.9752 37.1062L42.1994 43.4605C42.3722 43.65 42.5807 43.8021 42.8124 43.9075C43.044 44.013 43.2941 44.0697 43.5476 44.0743C43.8012 44.0788 44.053 44.0312 44.2882 43.9341C44.5233 43.8371 44.7369 43.6927 44.9162 43.5094C45.0955 43.3262 45.2369 43.108 45.3319 42.8677C45.4269 42.6275 45.4735 42.3702 45.469 42.1111C45.4646 41.852 45.4091 41.5965 45.3058 41.3599C45.2026 41.1232 45.0538 40.9102 44.8683 40.7335L38.6492 34.3742C39.6781 32.827 40.2747 31.0225 40.375 29.1548C40.4753 27.2871 40.0755 25.4267 39.2184 23.7738C38.3614 22.1209 37.0796 20.7379 35.5109 19.7736C33.9421 18.8093 32.1458 18.3001 30.3151 18.3008ZM24.0204 28.591C24.0204 26.8853 24.6836 25.2495 25.8641 24.0433C27.0446 22.8372 28.6456 22.1596 30.3151 22.1596C31.9845 22.1596 33.5856 22.8372 34.7661 24.0433C35.9465 25.2495 36.6097 26.8853 36.6097 28.591C36.6097 30.2968 35.9465 31.9326 34.7661 33.1387C33.5856 34.3449 31.9845 35.0225 30.3151 35.0225C28.6456 35.0225 27.0446 34.3449 25.8641 33.1387C24.6836 31.9326 24.0204 30.2968 24.0204 28.591Z" fill="white"/>
</svg>
